<?xml version="1.0" encoding="utf-8"?>
<!-- Generator: Adobe Illustrator 23.0.1, SVG Export Plug-In . SVG Version: 6.00 Build 0)  -->
<svg version="1.1" id="Layer_1" xmlns="http://www.w3.org/2000/svg" xmlns:xlink="http://www.w3.org/1999/xlink" x="0px" y="0px"
	 viewBox="0 0 504.7 504.7" style="enable-background:new 0 0 504.7 504.7;" xml:space="preserve">
<style type="text/css">
	.st0{fill:url(#SVGID_1_);}
	.st1{fill:#FFFFFF;}
</style>
	<linearGradient id="SVGID_1_" gradientUnits="userSpaceOnUse" x1="0" y1="252.349" x2="504.698" y2="252.349">
	<stop  offset="0" style="stop-color:#975cf6"/>
		<stop  offset="1" style="stop-color:#35087e"/>
</linearGradient>
	<path class="st0" d="M480.3,504.7H24.4C10.9,504.7,0,493.8,0,480.3V24.4C0,10.9,10.9,0,24.4,0h455.9c13.5,0,24.4,10.9,24.4,24.4
	v455.9C504.7,493.8,493.8,504.7,480.3,504.7z"/>
	<g>
	<g>
		<path class="st1" d="M195.8,411.3c-27.1-16.6-47.9-38.8-62.1-66.5c-14.3-27.8-21.4-58.4-21.4-91.9c0-35.4,7.7-67.1,23.2-95.1
			c15.4-27.9,37.1-49.8,65.1-65.6c27.9-15.8,59.6-23.6,95.1-23.6c15.9,0,30.8,1.7,44.6,5.1c13.8,3.4,25.3,7.3,34.4,11.7
			c9.1,4.4,15.1,8,18,11l-23.9,48.7c-19.8-17.5-45.7-26.3-77.5-26.3c-22.4,0-42.7,5.5-60.9,16.6c-18.2,11-32.5,26.8-42.9,47.3
			c-10.4,20.5-15.6,44.2-15.6,71.2c0,24.7,4.6,47.1,13.9,67.3c9.3,20.2,22.8,36.1,40.7,47.8c17.9,11.7,39.2,17.6,63.9,17.6
			c28.6,0,56.2-8.1,82.9-24.4l16.1,46.3c-7.2,6.5-20.2,12.8-39.2,18.8c-19,6-38.3,9-57.8,9C255,436.1,222.9,427.8,195.8,411.3z"/>
	</g>
</g>
</svg>
