<?xml version="1.0" encoding="UTF-8" standalone="no"?>
<svg
   xmlns="http://www.w3.org/2000/svg"
   height="192.34352"
   width="611.86823"
   className="svg-line"
   viewBox="0 0 611.86823 192.34353"
   y="0px"
   x="0px"
   id="Layer_1"
   version="1.1">
  <style
     id="style2"
     type="text/css">

        .st0, .st2 {
            stroke: #FFFFFF;
            fill: #fff;
        }

        .st1 {
            fill: none;
            stroke: #FFFFFF;
            stroke-dasharray: 12.124, 12.124;
        }
    </style>
  <g
     transform="translate(-0.2,-0.55647247)"
     id="g12">
    <path
       id="path4"
       d="M 0.2,11.2 C 2,12 3.8,12.8 5.7,13.7"
       className="st0" />
    <path
       id="path6"
       d="M 16.5,19.2 C 60,42.1 116.3,83 177.2,115 c 16.1,8.4 41.4,13.6 70,7.3 4.8,-1.1 51.9,-12.2 68,-52.2 2.8,-6.9 11.6,-28.7 0.7,-45.6 -9.2,-14.5 -25.2,-22 -37.4,-23.6 -10.5,-1.4 -31,1.2 -44.5,13 -8.5,7.4 -11.2,17.2 -11.9,19.8 -0.7,2.6 -3.2,12.9 0.7,23.8 5,14.1 19.4,30.8 27.5,35.2 51.3,27.7 63.6,22.4 83.2,26.9 42.1,9.5 14.6,1.5 103.3,24.8 10.3,2.7 27.1,5.3 41.3,5 20.3,-0.5 49.2,-13.4 67,-19.2 14.8,-4.8 46,-9 60.1,9.2 6.9,8.9 8.4,21.6 5.4,34.7"
       className="st1" />
    <path
       id="path8"
       d="m 609,179.9 c -0.6,1.9 -1.3,3.7 -2.1,5.6"
       className="st0" />
    <path
       id="path10"
       d="m 607.6,183.9 4.2,-0.4 v 0.1 l -4.6,4.3 c -1.3,1.7 -2.6,3.3 -3.9,5 0.5,-2 1,-4.1 1.4,-6.1 l 0.4,-6.3 0.1,-0.1 z"
       className="st2" />
  </g>
</svg>
