<?xml version="1.0" encoding="utf-8"?>
<!-- Generator: Adobe Illustrator 23.0.1, SVG Export Plug-In . SVG Version: 6.00 Build 0)  -->
<svg version="1.1" id="bb43b303-7783-4b20-84ac-89898836e9dc"
	 xmlns="http://www.w3.org/2000/svg" xmlns:xlink="http://www.w3.org/1999/xlink" x="0px" y="0px" viewBox="0 0 674.7 435.2"
	 style="enable-background:new 0 0 674.7 435.2;" xml:space="preserve">
<style type="text/css">
	.st0{fill:#FFFFFF;stroke:#FFFFFF;stroke-miterlimit:10;}
	.st1{fill:#e6e6e6;}
	.st2{fill:#3f3d56;}
	.st3{fill:#975cf6;}
	.st4{fill:#a0616a;}
	.st5{fill:#2F2E41;}
	.st6{fill:#CCCCCC;}
</style>
<path class="st0" d="M670.7,342.5H177c-1.6,0-2.8-1.3-2.8-2.8V32c0-1.9,1.5-3.4,3.4-3.4h493.2c1.3,0,2.4,1.1,2.4,2.4v309
	C673.2,341.4,672.1,342.5,670.7,342.5z"/>
<path class="st1" d="M671.6,2.6H174.8c-0.3,0-0.6,0.3-0.6,0.6v24.7c0,0.3,0.3,0.6,0.6,0.6h496.8c0.3,0,0.6-0.3,0.6-0.6V3.2
	C672.2,2.9,671.9,2.6,671.6,2.6z"/>
<path class="st0" d="M667.2,0.5h-487c-3.9,0-7,3.1-7,7v330c0,3.9,3.1,7,7,7h487c3.9,0,7-3.1,7-7V7.5C674.2,3.6,671.1,0.5,667.2,0.5z
	 M672.2,337.5c0,2.8-2.2,5-5,5h-487c-2.8,0-5-2.2-5-5V7.5c0-2.8,2.2-5,5-5h487c2.8,0,5,2.2,5,5V337.5z"/>
<circle class="st2" cx="191.2" cy="15.5" r="6"/>
<circle class="st2" cx="208.5" cy="15.5" r="6"/>
<circle class="st2" cx="225.7" cy="15.5" r="6"/>
<path class="st2" d="M310.2,69.5h-88c-3.9,0-7,3.1-7,7v88c0,3.9,3.1,7,7,7h88c3.9,0,7-3.1,7-7v-88C317.2,72.6,314.1,69.5,310.2,69.5
	z M315.2,164.5c0,2.8-2.2,5-5,5h-88c-2.8,0-5-2.2-5-5v-88c0-2.8,2.2-5,5-5h88c2.8,0,5,2.2,5,5V164.5z"/>
<path class="st3" d="M468.2,70h-88c-3.6,0-6.5,2.9-6.5,6.5v88c0,3.6,2.9,6.5,6.5,6.5h88c3.6,0,6.5-2.9,6.5-6.5v-88
	C474.7,72.9,471.8,70,468.2,70z"/>
<path class="st1" d="M626.2,70h-88c-3.6,0-6.5,2.9-6.5,6.5v88c0,3.6,2.9,6.5,6.5,6.5h88c3.6,0,6.5-2.9,6.5-6.5v-88
	C632.7,72.9,629.8,70,626.2,70z"/>
<path class="st1" d="M310.2,202h-88c-3.6,0-6.5,2.9-6.5,6.5v88c0,3.6,2.9,6.5,6.5,6.5h88c3.6,0,6.5-2.9,6.5-6.5v-88
	C316.7,204.9,313.8,202,310.2,202z"/>
<path class="st3" d="M468.2,202h-88c-3.6,0-6.5,2.9-6.5,6.5v88c0,3.6,2.9,6.5,6.5,6.5h88c3.6,0,6.5-2.9,6.5-6.5v-88
	C474.7,204.9,471.8,202,468.2,202z"/>
<path class="st1" d="M626.2,202h-88c-3.6,0-6.5,2.9-6.5,6.5v88c0,3.6,2.9,6.5,6.5,6.5h88c3.6,0,6.5-2.9,6.5-6.5v-88
	C632.7,204.9,629.8,202,626.2,202z"/>
<path class="st3" d="M288.7,216.5h-88c-3.6,0-6.5-2.9-6.5-6.5v-88c0-3.6,2.9-6.5,6.5-6.5h88c3.6,0,6.5,2.9,6.5,6.5v88
	C295.2,213.6,292.3,216.5,288.7,216.5z"/>
<polygon class="st4" points="153.8,423.6 165.6,420 157.3,373.1 140,378.4 "/>
<path class="st5" d="M191.5,423.9l-36.8,11.3l0,0l-4.4-14.2l0,0l22.6-6.9C180.8,411.7,189.1,416.1,191.5,423.9L191.5,423.9
	L191.5,423.9z"/>
<polygon class="st4" points="53.8,423.9 66.1,423.9 71.9,376.6 53.8,376.6 "/>
<path class="st5" d="M89.7,435.2l-38.5,0l0,0l0-14.9l0,0l23.6,0C83.1,420.4,89.7,427,89.7,435.2L89.7,435.2L89.7,435.2L89.7,435.2z"
	/>
<path class="st4" d="M53,286.8c-3.8-3.3-4.2-9.1-0.8-12.9c0.4-0.4,0.7-0.8,1.2-1.1L62.8,153l19.3,4.8L66.6,274.6
	c2.9,4.2,1.9,9.9-2.3,12.8C60.8,289.9,56.1,289.6,53,286.8L53,286.8z"/>
<circle class="st4" cx="91.7" cy="82.1" r="24.6"/>
<path class="st6" d="M70.3,149.4c-5.5-7.6-5.7-18.1,0.3-25.4c3.9-4.7,10.4-8.5,21.3-8.5c29,0,40,23,40,23s12,22,5,42s-7,22-7,22
	l-46-4C83.9,198.4,91.6,178.6,70.3,149.4z"/>
<path class="st6" d="M56.1,169.3l9.9-32.4c2.5-8.2,11.2-12.8,19.4-10.3c0.9,0.3,1.7,0.6,2.6,1l0,0c7.3,3.8,10.4,12.5,7.1,20
	l-12.6,28.7L56.1,169.3z"/>
<path class="st5" d="M128.9,197.4l39,202l-21,6l-51-133l-23,136l-22,3c0,0-9.7-179.9,33-213L128.9,197.4z"/>
<path class="st4" d="M185,188c-0.4,0.4-0.7,0.9-1,1.3l-49.5,2.4l-9.5-29.1l-16.6,7.9l15.6,43.4l61.3-12c3.9,4.3,10.6,4.6,14.8,0.7
	c4.3-3.9,4.6-10.6,0.7-14.8c-3.9-4.3-10.6-4.6-14.8-0.7C185.6,187.3,185.3,187.6,185,188L185,188z"/>
<path class="st6" d="M101.5,141.3c-1-8.5,5.1-16.2,13.6-17.2c0.9-0.1,1.9-0.1,2.8-0.1l0,0c8.2,0.5,14.5,7.3,14.5,15.5v31.3
	l-26.9,4.1L101.5,141.3z"/>
<path class="st5" d="M97.1,106.8c-3.7,0-6.5-3.9-6.4-7.6s2.6-6.9,5.6-9.1s6.5-3.5,9.8-5.1s6.6-3.6,8.7-6.6c2.5-4.1,2.9-9.1,1-13.5
	c-1.9-4.3-5.2-7.9-9.3-10.2c-12.8-7.5-29.1-3.9-37.6,8.3l-4.2,11.5c-4.3,5.2-5,12.8-2.3,19c2.6,6.2,8.2,10.8,14.6,13
	c6.4,2.1,13.3,2.3,19.8,0.6"/>
<path class="st5" d="M74.6,68.7c-1.8-2.9-4.9-4.7-8.2-5.8c-13.5-4.5-28,2.8-32.5,16.3c-0.7,2.2-1.2,4.5-1.3,6.7
	c-0.3,6.3,1.6,12.5,2.8,18.7s1.4,13.1-2,18.4c-2.6,4-7,6.6-11.3,8.8c-3.6,1.8-7.5,3.5-11.5,3.2s-8-3.5-7.9-7.5
	c-1.3,2.9-2.2,5.9-2.7,9.1c-0.3,3.2,0.5,6.6,2.8,8.8c3.3,3.2,8.6,3,13.1,2.3c9.9-1.5,19.8-4.3,27.6-10.5s13-16.5,10.9-26.2
	c-0.9-4.1-2.9-7.8-4.5-11.6s-2.9-8-2.1-12.1c0.9-4.3,3.6-7.9,7.5-10c3.8-2,8.3-2.7,12.5-1.9c2.8,0.5,6.3,1.2,8-1.1
	c0.9-1.5,0.9-3.4-0.1-4.8c-1-1.4-2.2-2.6-3.6-3.6"/>
</svg>
