<?xml version="1.0" encoding="utf-8"?>
<!-- Generator: Adobe Illustrator 23.0.1, SVG Export Plug-In . SVG Version: 6.00 Build 0)  -->
<svg version="1.1" xmlns="http://www.w3.org/2000/svg" xmlns:xlink="http://www.w3.org/1999/xlink" width="800" height="600" style="opacity: 0.2;enable-background:new 0 0 800 600;" xml:space="preserve">
<style type="text/css">
	.st0{display:none;}
	.st1{display:inline;fill:#4C223D;stroke:#000000;stroke-miterlimit:10;}
	.st2{fill:none;stroke:#FFFFFF;stroke-width:2;stroke-opacity:0.25;}
	.st3{fill:#FFFFFF;fill-opacity:0.25;}
</style>
<g id="Layer_2" class="st0">
	<rect class="st1" width="800" height="600"/>
</g>
<g id="Layer_1">
	<path class="st2" d="M145.8,161.5l-0.6,15.6c-0.1,1.5-1.8,2.4-3.1,1.6l-13.2-8.3c-1.3-0.8-1.2-2.7,0.1-3.5l13.8-7.3
		C144.2,158.9,145.9,159.9,145.8,161.5L145.8,161.5z M687.2,335.1l-14.2,6.5c-1.4,0.6-3-0.5-2.8-2l1.5-15.5c0.1-1.5,1.9-2.3,3.2-1.4
		l12.7,9.1C688.8,332.5,688.6,334.4,687.2,335.1L687.2,335.1z"/>
	<path class="st2" d="M373.3,71.6l13.6,3.3c1.1,0.3,1.7,1.3,1.5,2.4l-3.3,13.6c-0.3,1.1-1.3,1.7-2.4,1.5l-13.6-3.3
		c-1.1-0.3-1.7-1.3-1.5-2.4l3.3-13.6C371.2,72,372.3,71.3,373.3,71.6z"/>
	<path class="st2" d="M190.2,413.1l6.6,12.4c0.5,1,0.1,2.2-0.8,2.7l-12.4,6.6c-1,0.5-2.2,0.1-2.7-0.8l-6.6-12.4
		c-0.5-1-0.1-2.2,0.8-2.7l12.4-6.6C188.5,411.8,189.7,412.1,190.2,413.1z"/>
	<circle class="st3" cx="625" cy="531" r="2"/>
	<path class="st2" d="M403.4,288.1l8,11.5c0.6,0.9,0.4,2.2-0.5,2.8l-11.5,8c-0.9,0.6-2.2,0.4-2.8-0.5l-8-11.5
		c-0.6-0.9-0.4-2.2,0.5-2.8l11.5-8C401.5,287,402.7,287.2,403.4,288.1z"/>
	<path class="st2" d="M622.5,155.4l0.9-14c0.1-1.1,1-1.9,2.1-1.9l14,0.9c1.1,0.1,1.9,1,1.9,2.1l-0.9,14c-0.1,1.1-1,1.9-2.1,1.9
		l-14-0.9C623.3,157.4,622.5,156.5,622.5,155.4z"/>
	<path class="st2" d="M411.4,475.5l14-0.9c1.1-0.1,2.1,0.8,2.1,1.9l0.9,14c0.1,1.1-0.8,2.1-1.9,2.1l-14,0.9
		c-1.1,0.1-2.1-0.8-2.1-1.9l-0.9-14C409.5,476.5,410.3,475.6,411.4,475.5z"/>
	<path class="st2" d="M369.3,394.3l-14.4,5.9c-1.4,0.6-2.9-0.6-2.7-2.1l2.1-15.4c0.2-1.5,2-2.3,3.2-1.3l12.3,9.5
		C371,391.8,370.8,393.7,369.3,394.3L369.3,394.3z"/>
	<path class="st2" d="M268,191.4l15.5-1.6c1.5-0.2,2.7,1.4,2,2.8l-6.4,14.2c-0.6,1.4-2.5,1.6-3.4,0.4l-9.1-12.6
		C265.7,193.4,266.5,191.6,268,191.4L268,191.4z"/>
	<path class="st2" d="M516.1,184.7l-14.9-4.5c-1.5-0.4-1.9-2.3-0.8-3.4l11.3-10.7c1.1-1.1,3-0.5,3.3,1l3.6,15.2
		C519,183.8,517.6,185.1,516.1,184.7L516.1,184.7z"/>
	<path class="st2" d="M534.4,375.1l8,11.5c0.6,0.9,0.4,2.2-0.5,2.8l-11.5,8c-0.9,0.6-2.2,0.4-2.8-0.5l-8-11.5
		c-0.6-0.9-0.4-2.2,0.5-2.8l11.5-8C532.5,374,533.7,374.2,534.4,375.1z"/>
	<path class="st2" d="M258.3,505.4l14.7,5.3c1.4,0.5,1.8,2.4,0.6,3.4l-11.9,10c-1.2,1-3,0.3-3.3-1.2l-2.7-15.3
		C255.3,506.1,256.8,504.8,258.3,505.4L258.3,505.4z"/>
	<path class="st2" d="M81,303.4l15.5-1.6c1.5-0.2,2.7,1.4,2,2.8l-6.4,14.2c-0.6,1.4-2.5,1.6-3.4,0.4l-9.1-12.6
		C78.7,305.4,79.5,303.6,81,303.4L81,303.4z"/>
	<path class="st2" d="M641,433.4l15.5-1.6c1.5-0.2,2.7,1.4,2,2.8l-6.4,14.2c-0.6,1.4-2.5,1.6-3.4,0.4l-9.1-12.6
		C638.7,435.4,639.5,433.6,641,433.4L641,433.4z"/>
	<path class="st2" d="M188.9,259.6l11.1,8.5c0.9,0.7,1,1.9,0.4,2.8l-8.5,11.1c-0.7,0.9-1.9,1-2.8,0.4l-11.1-8.5
		c-0.9-0.7-1-1.9-0.4-2.8l8.5-11.1C186.8,259.1,188,258.9,188.9,259.6z"/>
	<path class="st2" d="M150.3,66.4l-7,12.1c-0.5,1-1.8,1.3-2.7,0.7l-12.1-7c-1-0.5-1.3-1.8-0.7-2.7l7-12.1c0.5-1,1.8-1.3,2.7-0.7
		l12.1,7C150.5,64.2,150.8,65.5,150.3,66.4z"/>
	<path class="st2" d="M582.4,256.1l8,11.5c0.6,0.9,0.4,2.2-0.5,2.8l-11.5,8c-0.9,0.6-2.2,0.4-2.8-0.5l-8-11.5
		c-0.6-0.9-0.4-2.2,0.5-2.8l11.5-8C580.5,255,581.7,255.2,582.4,256.1z"/>
	<path class="st2" d="M495,288.6l7.9-13.4c0.8-1.3,2.7-1.3,3.5,0l7.7,13.6c0.8,1.3-0.2,3-1.8,3l-15.6-0.2
		C495.2,291.6,494.3,289.9,495,288.6L495,288.6z"/>
	<path class="st2" d="M559.9,60.1L545.5,66c-1.4,0.6-2.9-0.6-2.7-2.1l2.1-15.4c0.2-1.5,2-2.3,3.2-1.3l12.3,9.5
		C561.6,57.6,561.4,59.5,559.9,60.1L559.9,60.1z"/>
	<path class="st2" d="M113.7,475.2l8.7-12.9c0.9-1.3,2.8-1.1,3.5,0.2l6.9,14c0.7,1.4-0.4,3-1.9,2.9l-15.6-1
		C113.7,478.2,112.8,476.5,113.7,475.2L113.7,475.2z"/>
	<circle class="st3" cx="212.5" cy="139.5" r="2"/>
	<circle class="st3" cx="400" cy="184.8" r="2"/>
	<circle class="st3" cx="468.9" cy="101.7" r="2"/>
	<circle class="st3" cx="579" cy="344.6" r="2"/>
	<circle class="st3" cx="274.2" cy="344.6" r="2"/>
	<circle class="st3" cx="113.3" cy="386" r="2"/>
	<circle class="st3" cx="285.7" cy="450.1" r="2"/>
</g>
</svg>
